<?xml version="1.0" encoding="utf-8"?>
<!-- Generator: Adobe Illustrator 19.2.1, SVG Export Plug-In . SVG Version: 6.00 Build 0)  -->
<svg version="1.1" xmlns="http://www.w3.org/2000/svg" xmlns:xlink="http://www.w3.org/1999/xlink" x="0px" y="0px"
	 viewBox="0 0 320 562.3" style="enable-background:new 0 0 320 562.3;" xml:space="preserve">
<style type="text/css">
	.st0{display:none;}
	.st1{fill:#0C0F00;}
	.st2{fill:#997453;}
	.st3{filter:url(#Adobe_OpacityMaskFilter);}
	.st4{opacity:0.3;mask:url(#SVGID_1_);}
	.st5{fill:#891818;}
	.st6{fill:#DBD221;}
	.st7{filter:url(#Adobe_OpacityMaskFilter_1_);}
	.st8{opacity:0.3;mask:url(#SVGID_2_);}
	.st9{fill:#1E1D02;}
	.st10{filter:url(#Adobe_OpacityMaskFilter_2_);}
	.st11{opacity:0.3;mask:url(#SVGID_3_);}
</style>
<g id="image" class="st0">
	
		<image style="display:inline;overflow:visible;enable-background:new    ;" width="320" height="547" xlink:href="287EDCBE6617EA8C.jpeg" >
	</image>
</g>
<g id="legs">
	<g>
		<path class="st1" d="M217.9,198.7c0.7-0.3,1.5-0.6,2.2-0.9c0.7-0.3,1.4-0.5,2.3-0.7c0.8-0.2,1.6-0.3,2.5-0.5
			c0.8-0.2,1.6-0.2,2.5-0.3c1.7-0.2,3.3-0.1,5,0c0.8,0.1,1.7,0.2,2.5,0.3c0.9,0.1,1.7,0.3,2.5,0.5c1.7,0.4,3.3,1,4.9,1.6
			c1.6,0.7,3.2,1.4,4.6,2.4c1.5,0.9,2.9,1.9,4.3,2.9c0.7,0.6,1.3,1.1,2,1.7c0.6,0.6,1.2,1.2,1.8,1.8s1.1,1.3,1.7,1.9
			c0.6,0.6,1.1,1.3,1.6,2c1,1.4,1.9,2.8,2.7,4.3c0.4,0.7,0.8,1.5,1.1,2.2l1,2.3c0.6,1.5,1.2,3,1.7,4.6c0.5,1.5,1,3.1,1.4,4.6
			s0.7,3.1,1,4.7c0.2,1.6,0.4,3.2,0.4,4.8c0,0.8,0,1.6,0,2.4l-0.1,2.5v0.6c-0.1,0.1-0.1,0.5-0.2,0.8s-0.1,0.6-0.1,1
			c-0.1,0.7-0.1,1.4-0.1,2c0,0.7,0,1.4,0.1,2.1c0,0.7,0.2,1.4,0.3,2.1c0.1,0.7,0.3,1.4,0.5,2.1c0.2,0.7,0.4,1.4,0.7,2
			c0.4,1.4,1.2,2.6,1.8,3.8c0.7,1.2,1.7,2.3,2.6,3.4c0.5,0.5,1,1.1,1.5,1.5c0.5,0.5,1.1,1,1.7,1.4c1.1,1,2.3,1.8,3.4,2.7
			c1.2,0.8,2.2,1.7,3.4,2.6c1.1,0.9,2.1,1.8,3.1,2.7c1,0.9,2,1.9,2.9,2.9c0.5,0.5,0.9,1,1.4,1.6c0.5,0.5,1,1,1.4,1.5
			c0.9,1,1.9,2.1,2.8,3.2l0.7,0.8l0.7,0.8c0.5,0.5,0.9,1.1,1.4,1.6l1.4,1.7l1.3,1.8c0.9,1.2,1.9,2.3,2.8,3.6
			c0.9,1.3,1.8,2.6,2.6,4.1l0,0c0.2,0.4,0.1,1-0.4,1.2c-0.2,0.1-0.3,0.1-0.5,0.1c-1.7-0.1-3.3-0.4-4.8-0.8c-1.6-0.4-3.1-0.8-4.6-1.3
			l-2.2-0.9l-2.2-1c-0.7-0.3-1.4-0.7-2.1-1.1s-1.4-0.7-2.1-1.2c-1.3-0.8-2.6-1.7-3.9-2.7c-0.6-0.5-1.3-0.9-1.9-1.4l-1.8-1.6
			c-1.2-1.1-2.3-2.2-3.4-3.4c-1-1.3-1.9-2.6-2.7-4c-0.8-1.4-1.5-2.9-2.1-4.4l-0.9-2.3c-0.3-0.7-0.5-1.6-0.8-2.3
			c-0.2-0.8-0.5-1.5-0.8-2.3c-0.1-0.4-0.3-0.7-0.4-1.1l-0.4-1.1c-0.5-1.5-1.1-2.9-1.6-4.4c-0.3-0.7-0.6-1.4-0.9-2.1l-0.5-1l-0.4-1.1
			l-1.9-4.3l-0.5-1.1l-0.5-1.1l-0.5-1.1c-0.2-0.4-0.3-0.7-0.5-1.1c-0.3-0.8-0.7-1.5-0.9-2.3c-0.1-0.4-0.3-0.8-0.4-1.2
			c-0.1-0.5-0.3-0.8-0.4-1.5v0.6c-0.3-0.5-0.6-1.2-0.9-1.7l-1-1.8c-0.7-1.2-1.3-2.4-2-3.6c-1.3-2.4-2.4-4.7-3.8-7
			c-0.7-1.1-1.4-2.2-2.1-3.3c-0.7-1.1-1.5-2.1-2.2-3.1s-1.5-2-2.2-2.9l-0.5-0.7l-0.6-0.7c-0.4-0.5-0.7-1-1.1-1.4
			c-0.4-0.4-0.7-0.9-1.1-1.4c-0.4-0.4-0.8-0.9-1.1-1.4c-0.4-0.5-0.8-0.9-1.2-1.3c-0.4-0.5-0.8-0.9-1.2-1.3c-0.8-0.9-1.7-1.7-2.6-2.5
			l-1.4-1.2c-0.5-0.4-1-0.8-1.4-1.2c-1-0.8-2-1.5-3.1-2.3c-1.1-0.7-2.2-1.5-3.4-2.1c-0.6-0.3-1.2-0.7-1.8-1s-1.2-0.6-1.9-1
			c-0.6-0.4-1.3-0.7-2.1-1c-0.7-0.3-1.4-0.7-2.1-1.1c-0.4-0.2-0.6-0.8-0.4-1.2C217.6,198.9,217.7,198.8,217.9,198.7z"/>
	</g>
	<g>
		<path class="st1" d="M112.9,156c0,0-0.7,0-1.9,0c-1.2,0-3.1-0.1-5.4-0.3c-4.6-0.4-11.2-1.4-19-4.1c-3.9-1.4-8-3.2-12.2-6.1
			c-2.1-1.4-4.2-3.1-6.1-5.1s-3.7-4.4-5.1-7.1c-0.4-0.7-0.7-1.4-1-2.1c-0.3-0.7-0.6-1.4-0.8-2.1c-0.3-0.7-0.5-1.5-0.6-2.2
			c-0.2-0.7-0.4-1.5-0.5-2.3c-0.5-3-0.6-6.1-0.4-9c0.2-3,0.7-5.8,1.5-8.5l0.3-1.1l0.3-0.9c0.2-0.6,0.4-1.3,0.7-2
			c0.5-1.4,1.1-2.6,1.7-3.8c2.5-5,5.9-9.3,8.6-13.6c1.4-2.2,2.6-4.3,3.6-6.5s1.7-4.5,1.9-6.7c0.1-1.1,0.1-2.2-0.1-3.1
			c-0.1-0.5-0.2-1-0.3-1.4v-0.2v-0.1c0-0.1,0,0.1,0,0.1v-0.1L78,67.3l-0.3-0.9L77.6,66c0-0.1-0.1-0.2-0.1-0.3l-0.3-0.6
			c-0.2-0.4-0.4-0.8-0.6-1.3c-0.2-0.4-0.4-0.9-0.7-1.3c-0.2-0.4-0.4-0.8-0.7-1.2c-0.9-1.6-1.8-3.2-2.8-4.7c-0.9-1.5-1.8-3.1-2.8-4.5
			c-1.9-2.9-3.8-5.6-5.6-8c-1.8-2.5-3.4-4.6-4.7-6.4c-1.3-1.8-2.4-3.3-3.1-4.3c-0.4-0.5-0.6-0.9-0.8-1.2s-0.3-0.4-0.3-0.4l0,0
			c-0.2-0.3-0.1-0.8,0.2-1c0.2-0.1,0.3-0.1,0.5-0.1c0,0,0.2,0,0.5,0.1s0.8,0.2,1.4,0.4c1.2,0.4,3,1,5.2,2s4.7,2.4,7.4,4.4
			s5.6,4.5,8.3,7.7c1.3,1.6,2.7,3.4,3.8,5.5c1.1,2.1,2.1,4.4,2.6,6.9c0.3,1.3,0.5,2.6,0.5,3.9c0,0.7,0.1,1.3,0,2.1v1.1v0.5l-0.1,0.4
			l-0.1,0.9L85.2,67v0.1c0,0,0,0.3,0,0.2v0.1v0.3c-0.1,0.7-0.3,1.4-0.4,2.1c-0.4,1.4-0.8,2.7-1.3,3.9c-1,2.5-2.2,4.7-3.3,7
			c-1.1,2.3-2.1,4.6-3,6.9c-1.8,4.7-2.7,9.8-3.3,14.5l-0.5,3.5l-0.2,1.8l-0.1,1c0,0.1,0-0.1,0,0v0.1v0.1v0.2v0.4
			c-0.3,2.3-0.4,4.5-0.3,6.6c0.2,4.2,1.3,7.8,3,10.9c1.7,3.1,4.1,5.9,6.9,8.4s6,4.7,9,6.7s6,3.7,8.7,5.2c2.7,1.6,5.1,2.9,7,4
			c1,0.6,1.9,1,2.6,1.5c0.8,0.5,1.4,0.8,2,1.2c1.1,0.6,1.6,1,1.6,1c0.3,0.2,0.4,0.6,0.2,0.9C113.4,155.9,113.1,156,112.9,156z"/>
	</g>
	<g>
		<path class="st1" d="M198,154.8c0,0,0.6-0.4,1.6-1c0.5-0.3,1.2-0.7,2-1.2s1.6-1,2.6-1.5c1.9-1.1,4.3-2.5,7-4
			c2.6-1.5,5.6-3.3,8.6-5.2c3-2,6.1-4.2,8.8-6.7s5-5.3,6.6-8.4s2.6-6.7,2.7-11c0.1-2.1,0-4.3-0.4-6.6c-0.3-2.4-0.5-4.6-0.9-7
			c-0.7-4.8-1.6-9.8-3.4-14.5c-0.9-2.4-1.9-4.6-3-6.9s-2.2-4.5-3.3-7c-0.5-1.2-1-2.5-1.3-3.9c-0.2-0.7-0.3-1.4-0.4-2.1v-0.1v-0.1
			c0,0.1,0-0.2,0-0.2v-0.2l-0.1-0.4l-0.1-0.9c-0.1-0.3-0.1-0.6-0.1-1v-1.1c0-0.8,0-1.4,0.1-2.1c0.1-1.3,0.3-2.6,0.6-3.9
			c0.6-2.5,1.5-4.8,2.7-6.9c0.6-1,1.2-2,1.9-2.9c0.6-0.9,1.3-1.8,2-2.6c2.7-3.2,5.6-5.7,8.3-7.7c2.7-1.9,5.2-3.4,7.4-4.4
			s3.9-1.6,5.2-2c0.6-0.2,1.1-0.3,1.4-0.4c0.3-0.1,0.5-0.1,0.5-0.1c0.4-0.1,0.7,0.2,0.8,0.5c0,0.2,0,0.4-0.1,0.5l0,0
			c0,0-0.1,0.1-0.3,0.4c-0.2,0.3-0.5,0.7-0.8,1.2c-0.7,1-1.7,2.5-3.1,4.3c-1.3,1.8-2.9,3.9-4.7,6.3c-1.8,2.4-3.7,5.1-5.6,7.9
			c-0.4,0.7-1,1.4-1.4,2.2c-0.4,0.7-0.9,1.5-1.4,2.3c-0.9,1.5-1.8,3.1-2.8,4.7c-0.9,1.6-1.9,3.3-2.6,5l-0.3,0.8l-0.1,0.4l-0.1,0.2
			c0,0.1,0-0.2,0-0.1l0,0v0.1c-0.1,0.5-0.3,0.9-0.4,1.4c-0.2,1-0.2,2-0.1,3.1c0.1,2.2,0.8,4.4,1.8,6.6s2.2,4.4,3.6,6.5
			c2.7,4.3,6.1,8.6,8.6,13.5c1.2,2.4,2.3,5.1,3,7.7c0.7,2.7,1.3,5.5,1.6,8.4s0.3,5.9-0.2,8.9c-0.2,1.5-0.6,3-1,4.5
			c-0.5,1.5-1,2.9-1.7,4.3c-1.3,2.7-3,5.2-4.9,7.3s-4,3.8-6,5.3c-4.2,2.9-8.3,4.8-12.2,6.2c-7.7,2.8-14.3,3.7-18.9,4.1
			c-2.3,0.2-4.1,0.3-5.4,0.3c-1.2,0-1.9,0-1.9,0c-0.4,0-0.7-0.3-0.7-0.7C197.7,155.1,197.8,154.9,198,154.8z"/>
	</g>
	<g>
		<path class="st1" d="M95,200.3c-0.7,0.4-1.4,0.7-2.1,1.1c-0.7,0.3-1.4,0.6-2.1,1c-0.6,0.3-1.3,0.7-1.9,1s-1.2,0.7-1.8,1
			c-1.2,0.6-2.3,1.4-3.4,2.1c-1.1,0.8-2.1,1.4-3.1,2.3c-0.5,0.4-1,0.7-1.4,1.2l-1.4,1.2c-0.9,0.8-1.8,1.6-2.6,2.5
			c-0.4,0.4-0.8,0.8-1.2,1.3c-0.4,0.4-0.8,0.9-1.2,1.3c-0.4,0.5-0.7,0.9-1.1,1.4s-0.7,0.9-1.1,1.4c-0.4,0.4-0.7,0.9-1.1,1.4L69,221
			l-0.5,0.7c-0.8,0.9-1.5,1.9-2.2,2.9s-1.5,2-2.2,3.1c-0.7,1.1-1.4,2.1-2.1,3.3c-1.3,2.2-2.5,4.6-3.8,7c-0.6,1.2-1.3,2.4-2,3.6
			l-1,1.8c-0.3,0.6-0.6,1.3-0.9,1.7v-0.6c-0.1,0.7-0.3,1-0.4,1.5c-0.1,0.4-0.3,0.8-0.4,1.2c-0.3,0.8-0.6,1.6-0.9,2.3
			c-0.1,0.4-0.3,0.8-0.5,1.1l-0.5,1.1l-0.5,1.1l-0.5,1.1l-1.9,4.3l-0.4,1.1l-0.5,1c-0.3,0.7-0.6,1.4-0.9,2.1
			c-0.5,1.5-1.2,2.9-1.6,4.4L45,268c-0.1,0.4-0.3,0.7-0.4,1.1c-0.3,0.8-0.5,1.5-0.8,2.3s-0.5,1.6-0.8,2.3l-0.9,2.3
			c-0.6,1.5-1.3,3-2.1,4.4s-1.7,2.7-2.7,4c-1,1.2-2.2,2.3-3.4,3.4l-1.8,1.6c-0.6,0.5-1.3,1-1.9,1.4c-1.3,0.9-2.6,1.8-3.9,2.7
			c-0.7,0.4-1.3,0.8-2.1,1.2c-0.7,0.4-1.4,0.7-2.1,1.1l-2.2,1l-2.2,0.9c-1.5,0.5-3.1,0.9-4.6,1.3c-1.6,0.4-3.2,0.6-4.8,0.8
			c-0.5,0-0.9-0.3-1-0.8c0-0.2,0-0.4,0.1-0.5l0,0c0.8-1.5,1.7-2.9,2.6-4.1c0.9-1.3,1.8-2.5,2.8-3.6l1.3-1.8l1.4-1.7
			c0.5-0.6,0.9-1.1,1.4-1.6l0.7-0.8l0.7-0.8c0.9-1.1,1.8-2.1,2.8-3.2c0.5-0.5,1-1,1.4-1.5s0.9-1,1.4-1.6c0.9-1,1.9-2,2.9-2.9
			c1-1,2-1.9,3.1-2.7c1.2-0.8,2.2-1.7,3.4-2.6c1.2-0.8,2.4-1.7,3.4-2.7c0.6-0.5,1.1-0.9,1.7-1.4c0.6-0.5,1.1-1,1.5-1.5
			c0.9-1.1,1.9-2.2,2.6-3.4c0.7-1.2,1.4-2.5,1.8-3.8c0.2-0.7,0.5-1.3,0.7-2s0.3-1.4,0.5-2.1c0.1-0.7,0.3-1.4,0.3-2.1
			c0-0.7,0.1-1.4,0.1-2.1c0-0.7,0-1.4-0.1-2c0-0.3-0.1-0.7-0.1-1c-0.1-0.3-0.1-0.7-0.2-0.8v-0.6l-0.1-2.5c0-0.8,0-1.6,0-2.4
			c0-1.6,0.2-3.2,0.4-4.8s0.6-3.1,1-4.7c0.4-1.5,0.9-3.1,1.4-4.6s1.1-3.1,1.7-4.6l1-2.3c0.4-0.7,0.7-1.5,1.1-2.2
			c0.8-1.5,1.7-2.9,2.7-4.3c0.5-0.7,1-1.4,1.6-2s1.1-1.3,1.7-1.9c0.6-0.6,1.2-1.2,1.8-1.8s1.3-1.1,2-1.7c1.4-1.1,2.8-2.1,4.3-2.9
			c1.5-0.9,3.1-1.6,4.6-2.4c1.6-0.6,3.2-1.2,4.9-1.6c0.8-0.2,1.7-0.4,2.5-0.5s1.7-0.3,2.5-0.3c1.7-0.1,3.4-0.2,5,0
			c0.8,0.1,1.6,0.1,2.5,0.3c0.8,0.1,1.7,0.3,2.5,0.5s1.5,0.5,2.3,0.7c0.7,0.3,1.5,0.6,2.2,0.9c0.4,0.2,0.7,0.7,0.5,1.2
			C95.3,200.1,95.2,200.2,95,200.3z"/>
	</g>
	<g>
		<path d="M31.8,447.7c-0.4-1.1-0.6-2-0.8-3c-0.1-1-0.2-2-0.3-2.9c-0.1-1,0-1.9,0-2.9c0.1-0.9,0.1-1.9,0.2-2.8
			c0.2-1.9,0.5-3.7,0.9-5.5c0.2-0.9,0.4-1.8,0.7-2.7c0.2-0.9,0.5-1.8,0.8-2.6c0.3-0.9,0.6-1.7,0.9-2.6c0.3-0.8,0.6-1.7,1-2.5
			c0.8-1.6,1.6-3.2,2.7-4.7c0.5-0.7,1.1-1.5,1.7-2.2c0.6-0.7,1.2-1.4,1.8-2.1c1.2-1.4,2.5-2.8,3.6-4.2l-0.2,2.1
			c-0.2-1.9-0.5-3.6-0.8-5.5c-0.1-0.9-0.3-1.8-0.5-2.7c-0.2-0.9-0.3-1.8-0.5-2.7c-0.4-1.8-0.7-3.6-1.1-5.4l-1.2-5.4
			c-0.4-1.8-0.9-3.6-1.2-5.5c-0.4-1.9-0.7-3.7-0.9-5.6c-0.1-0.9-0.2-1.9-0.3-2.9s-0.1-1.9-0.1-2.9c0-1.9,0-3.9,0.2-5.8l0.3-2.9
			l0.4-2.9c0.3-1.9,0.7-3.8,1.2-5.7c0.5-1.9,1-3.7,1.6-5.6c0.6-1.8,1.3-3.6,2-5.4c3-7,7.2-13.2,11-18.9l0.2-0.4
			c1.9-2.2,4-4.4,6.3-6.5c1.1-1,2.3-2,3.5-3c0.6-0.5,1.2-1,1.9-1.4c0.6-0.5,1.3-0.9,2-1.4c0.4-0.2,0.8-0.1,1.1,0.2
			c0.1,0.1,0.1,0.3,0.1,0.5c-0.1,0.8-0.1,1.6-0.3,2.4c-0.1,0.8-0.2,1.6-0.4,2.3c-0.3,1.5-0.6,3-1,4.5c-0.8,3-1.7,5.8-2.7,8.6
			l0.2-0.4c-1.3,3.5-2.7,6.9-4,10.1c-1.4,3.2-2.8,6.3-4.1,9.4c-0.7,1.5-1.3,3-2,4.6c-0.7,1.5-1.3,3-1.9,4.6l-0.9,2.3l-0.8,2.3
			l-0.7,2.4l-0.7,2.4c-0.2,0.8-0.4,1.6-0.6,2.4c-0.2,0.8-0.4,1.6-0.6,2.4l-1.2,4.9c-0.4,1.7-0.7,3.4-1,5.1s-0.5,3.4-0.6,5.2
			c0,0.9-0.1,1.7-0.1,2.6s0,1.7,0.1,2.6c0,0.9,0.1,1.7,0.2,2.6c0.1,0.9,0.2,1.7,0.4,2.6s0.4,1.7,0.6,2.6c0.2,0.8,0.5,1.7,0.8,2.5
			s0.6,1.7,0.9,2.5c0.3,0.8,0.7,1.6,1.1,2.4l0.2,0.4l-0.4,1.7c-0.4,1.8-0.7,3.6-1,5.4l-0.4,2.7c-0.2,0.9-0.3,1.8-0.5,2.6
			c-0.4,1.7-0.9,3.4-1.6,5c-0.7,1.6-1.4,3.2-2.2,4.7s-1.6,3.1-2.5,4.6c-0.4,0.8-0.9,1.5-1.3,2.2c-0.4,0.7-0.9,1.5-1.4,2.2
			c-0.4,0.7-1,1.5-1.5,2.2s-1,1.5-1.5,2.2l-1.6,2.2l-1.6,2.2l-0.1,0.1c-0.2,0.3-0.7,0.4-1,0.2C31.9,447.9,31.8,447.8,31.8,447.7z"/>
	</g>
	<g>
		<path d="M271.6,447.7l-1.6-2.2l-1.6-2.2c-0.5-0.7-1-1.5-1.5-2.2s-1-1.5-1.5-2.2s-1-1.5-1.4-2.2c-0.5-0.7-0.9-1.5-1.3-2.2
			c-0.9-1.5-1.7-3-2.5-4.6c-0.8-1.5-1.5-3.1-2.2-4.7s-1.2-3.3-1.6-5c-0.2-0.9-0.4-1.7-0.5-2.6l-0.4-2.7c-0.3-1.8-0.6-3.6-1-5.4
			l-0.4-1.7l0.2-0.4c0.4-0.8,0.7-1.6,1.1-2.4c0.4-0.8,0.7-1.6,0.9-2.5c0.3-0.8,0.5-1.7,0.8-2.5c0.2-0.8,0.4-1.7,0.6-2.6
			s0.3-1.7,0.4-2.6s0.2-1.7,0.2-2.6c0.1-0.9,0.1-1.7,0.1-2.6s0-1.7-0.1-2.6c-0.1-1.7-0.3-3.5-0.6-5.2c-0.3-1.7-0.7-3.4-1-5.1
			l-1.2-4.9c-0.2-0.8-0.4-1.6-0.6-2.4c-0.2-0.8-0.4-1.6-0.6-2.4l-0.7-2.4l-0.7-2.4l-0.8-2.3l-0.9-2.3c-0.6-1.5-1.3-3-1.9-4.6
			c-0.7-1.5-1.3-3-2-4.6c-1.3-3.1-2.7-6.1-4.1-9.4c-1.4-3.2-2.8-6.5-4-10.1l0.2,0.4c-1-2.8-2-5.6-2.7-8.6c-0.4-1.5-0.7-3-1-4.5
			c-0.1-0.8-0.3-1.5-0.4-2.3c-0.1-0.8-0.2-1.6-0.3-2.4c0-0.4,0.3-0.8,0.7-0.8c0.2,0,0.3,0,0.5,0.1c0.7,0.4,1.4,0.9,2,1.4
			s1.3,0.9,1.9,1.4c1.2,1,2.4,2,3.5,3c2.2,2.1,4.3,4.2,6.3,6.5l0.2,0.4c3.8,5.7,8.1,11.8,11,18.9c0.7,1.7,1.4,3.5,2,5.4
			c0.6,1.8,1.1,3.7,1.6,5.6s0.8,3.8,1.2,5.7l0.4,2.9l0.3,2.9c0.2,1.9,0.3,3.8,0.2,5.8c0,1-0.1,1.9-0.1,2.9c-0.1,1-0.2,1.9-0.3,2.9
			c-0.2,1.9-0.6,3.8-0.9,5.6c-0.3,1.9-0.8,3.7-1.2,5.5l-1.2,5.4c-0.4,1.8-0.8,3.6-1.1,5.4c-0.2,0.9-0.4,1.8-0.5,2.7
			c-0.2,0.9-0.3,1.8-0.5,2.7c-0.3,1.8-0.6,3.6-0.8,5.5l-0.2-2.1c1.1,1.4,2.4,2.8,3.6,4.2c0.6,0.7,1.2,1.4,1.8,2.1
			c0.6,0.7,1.1,1.5,1.7,2.2c1.1,1.5,1.9,3.1,2.7,4.7c0.4,0.8,0.7,1.7,1,2.5s0.6,1.7,0.9,2.6s0.5,1.7,0.8,2.6s0.5,1.8,0.7,2.7
			c0.4,1.8,0.7,3.6,0.9,5.5c0.1,0.9,0.2,1.9,0.2,2.8c0,1,0.1,1.9,0,2.9c0,1-0.1,2-0.3,2.9c-0.2,1-0.4,2-0.8,3
			c-0.2,0.4-0.6,0.6-1,0.4c-0.1-0.1-0.2-0.1-0.3-0.2L271.6,447.7z"/>
	</g>
</g>
<g id="head">
	<g id="antenne">
		<g>
			<path class="st1" d="M132.5,56.5c0,0-1-0.4-2.7-1.2c-0.9-0.4-1.9-0.8-3.1-1.4c-1.2-0.6-2.6-1.2-4-2s-3-1.7-4.6-2.7
				s-3.3-2.2-5-3.5c-0.8-0.7-1.6-1.4-2.5-2.1c-0.8-0.7-1.6-1.5-2.4-2.3s-1.5-1.7-2.3-2.6c-0.8-0.9-1.4-1.9-2.1-2.8
				c-1.3-2-2.6-4.1-3.6-6.3c-0.5-1.1-0.9-2.3-1.3-3.5c-0.3-1.2-0.6-2.4-0.7-3.6c-0.2-2.4,0-4.8,0.6-6.9c0.2-1.1,0.6-2.1,1-3
				s0.8-1.8,1.3-2.6c0.9-1.6,1.9-3,2.9-4c1-1.1,2-1.9,2.8-2.6c0.8-0.6,1.5-1.1,2-1.3c0.5-0.3,0.8-0.4,0.8-0.4c0.3-0.1,0.5,0,0.6,0.3
				c0,0.1,0,0.2,0,0.3l0,0c0,0-0.1,0.3-0.2,0.8s-0.4,1.2-0.6,2.2c-0.3,0.9-0.5,2-0.8,3.2s-0.5,2.6-0.7,4s-0.3,2.9-0.4,4.5
				c0,1.5,0,3.1,0.2,4.8c0,0.8,0.2,1.6,0.2,2.5c0.2,0.8,0.2,1.7,0.4,2.6c0.3,1.8,1,3.6,1.8,5.3c0.5,0.8,0.9,1.7,1.4,2.6
				c0.6,0.8,1,1.7,1.7,2.5c0.6,0.8,1.2,1.6,1.8,2.3c0.6,0.8,1.3,1.5,1.9,2.2c0.7,0.7,1.3,1.4,2,2.1c0.6,0.7,1.4,1.3,2,1.9
				c1.3,1.3,2.6,2.4,3.8,3.4c1.2,1,2.4,1.9,3.4,2.7s2,1.5,2.7,2c1.5,1.1,2.4,1.8,2.4,1.8c0.2,0.1,0.2,0.4,0.1,0.6
				C132.9,56.5,132.7,56.6,132.5,56.5z"/>
		</g>
		<g>
			<path class="st1" d="M180.5,56.2c0,0,0.8-0.7,2.1-1.9c0.7-0.6,1.5-1.4,2.4-2.2c0.9-0.9,1.9-1.8,3-3c0.5-0.6,1.1-1.1,1.6-1.7
				c0.6-0.6,1.1-1.3,1.6-1.9c1.1-1.3,2.2-2.8,3.3-4.3c0.5-0.8,1-1.6,1.5-2.4c0.4-0.8,0.9-1.6,1.3-2.5c0.8-1.7,1.5-3.4,2-5.2
				s0.6-3.6,0.6-5.3c-0.1-1.7-0.4-3.3-0.6-4.9c-0.3-1.5-0.6-3.1-0.9-4.5c-0.4-1.5-0.8-2.9-1.3-4.2s-1-2.6-1.4-3.7
				c-0.5-1.1-0.9-2.2-1.3-3c-0.8-1.7-1.2-2.7-1.2-2.7l0,0c-0.1-0.3,0-0.5,0.2-0.7c0.1,0,0.2-0.1,0.3,0c0,0,0.3,0.1,0.8,0.2
				c0.5,0.2,1.3,0.5,2.2,0.9c1.8,0.9,4.2,2.5,6.6,5.2c1.2,1.3,2.3,2.9,3.3,4.8s1.7,4,2.1,6.3c0.3,2.3,0.2,4.8-0.3,7.2
				s-1.2,4.7-2.2,6.8c-0.9,2.2-2.1,4.2-3.4,6c-0.6,0.9-1.3,1.8-2,2.6s-1.4,1.6-2.1,2.3c-0.7,0.8-1.5,1.4-2.2,2.1
				c-0.7,0.7-1.4,1.3-2.2,1.9c-0.7,0.6-1.4,1.2-2.1,1.7c-0.7,0.5-1.4,1-2,1.5s-1.3,0.9-1.9,1.3c-0.6,0.4-1.2,0.8-1.8,1.1
				c-1.1,0.7-2.1,1.2-2.9,1.7c-1.6,0.9-2.5,1.4-2.5,1.4c-0.2,0.1-0.5,0-0.6-0.2C180.3,56.6,180.3,56.3,180.5,56.2z"/>
		</g>
	</g>
	<g id="left_eye">
		<path class="st1" d="M172.6,89.6c0,4.5-1,8.5-2.4,12.6c-1.4,4.2-1.8,8.9-4.3,12.4c-2.6,3.5-6.4,6-10,8.6
			c-3.5,2.5-7.3,4.8-11.5,6.2c-4.1,1.3-8.4,2.3-12.9,2.3s-8.9-0.8-13-2.2c-4.2-1.4-7.8-3.9-11.3-6.5s-6.3-5.8-8.9-9.4
			c-2.5-3.5-5.5-6.9-6.9-11.1c-1.3-4.1-1.2-8.5-1.2-13s0.5-8.8,1.8-12.8c1.4-4.2,3.4-8,5.9-11.5c2.6-3.5,4.9-7.6,8.5-10.1
			c3.5-2.5,8.1-3.4,12.3-4.8c4.1-1.3,8.3-1.7,12.8-1.7c4.5,0,8.7,0.2,12.8,1.6c4.2,1.4,7.9,3.6,11.4,6.1c3.5,2.6,7.7,4.7,10.3,8.2
			c2.5,3.5,3.8,8,5.2,12.2C172.5,80.7,172.6,85.1,172.6,89.6z"/>
	</g>
	<g id="right_eye">
		<path class="st1" d="M216.4,89.6c0,4.5-0.4,8.7-1.8,12.7c-1.4,4.2-2.4,8.7-4.9,12.2c-2.6,3.5-6.1,6.5-9.6,9s-7.3,5-11.5,6.4
			c-4.1,1.3-8.6,0.8-13.1,0.8s-9,0.4-13.1-0.9c-4.2-1.4-8.5-3.2-12-5.8c-3.5-2.6-6.4-6.2-9-9.8c-2.5-3.5-5.1-7.4-6.5-11.6
			c-1.3-4.1-1.4-8.7-1.4-13.2s0.7-8.9,2-13c1.4-4.2,4.4-7.5,6.9-11c2.6-3.5,5-7.1,8.6-9.7c3.5-2.5,7.4-4.4,11.7-5.8
			c4.1-1.3,8.3-2,12.8-2s8.9,0.3,12.9,1.6c4.2,1.4,8.6,2.8,12.1,5.3c3.5,2.6,6.6,6.1,9.1,9.7c2.5,3.5,4.8,7.5,6.1,11.7
			C217.2,80.5,216.4,85.1,216.4,89.6z"/>
	</g>
	<g>
		<g>
			<path class="st2" d="M90.7,131.7c0,2.7,1.3,5.3,1.4,7.9c0.1,2.7-0.7,5.3-0.5,7.9c0.2,2.7,0.2,5.3,0.5,7.9c0.3,2.7,1.7,5.2,2,7.7
				c0.4,2.7,0.7,5.3,1.1,7.8c0.5,2.7,0.2,5.4,0.7,7.9c0.6,2.6,1.4,5.2,2.2,7.6c0.8,2.6,2,5,2.9,7.3c1,2.5,1.4,5.3,2.5,7.5
				c1.2,2.4,3.2,4.4,4.5,6.5c1.4,2.3,3.3,4.2,4.9,6.1c1.7,2.1,3.1,4.4,4.9,6.1c2,1.8,3.9,3.6,6.1,5.1s4.2,3.4,6.6,4.5
				c2.4,1.1,5.2,1.3,7.7,2s5.1,1.7,7.7,2c2.6,0.3,5.3-0.8,7.9-0.8c2.7,0,5.4,0.8,8,0.6c2.7-0.2,5.1-1.8,7.7-2.4
				c2.6-0.6,5.7,0.4,8.2-0.5s4.4-3.3,6.7-4.7c2.3-1.3,4.7-2.4,6.8-4.2c1.9-1.7,4.4-3.1,6.2-5.3c1.6-2,2.8-4.5,4.2-7
				c1.3-2.2,1.6-5,2.7-7.6c1-2.3,2.7-4.5,3.6-7.2c0.8-2.4,1.5-5,2.1-7.8c0.6-2.5,0.5-5.3,0.9-8c0.4-2.5,1.2-5.1,1.5-7.9
				c0.3-2.6,0.8-5.2,1.1-8c0.2-2.6,0.1-5.3,0.2-8c0.1-2.6,0.6-5.3,0.7-8c0-2.6-0.2-5.3-0.2-8c0-2.6-1.2-5.3-1.3-8s0.1-5.4-0.3-8
				c-0.4-2.7,0.1-5.6-0.6-8.1c-0.7-2.6-2.8-4.7-3.8-7.2s-1.3-5.4-2.5-7.7c-1.3-2.4-2.8-4.6-4.3-6.9s-3.1-4.5-4.7-6.6
				c-1.6-2.2-3-4.6-4.7-6.6c-1.8-2-4.9-2.9-6.7-4.7c-2-1.9-3.8-3.8-5.8-5.5c-2.1-1.8-4-3.8-6-5.3c-2.3-1.7-4.1-3.8-6.2-5.2
				c-2.5-1.6-4.9-3-7-4c-3.4-1.7-6.2-2.2-7.7-2.2c-1.6,0-4.7-0.1-8,1.7c-2.1,1.1-3.6,3.8-6.2,5.5c-2.1,1.4-4.4,2.8-6.7,4.5
				c-2,1.6-4.2,3.2-6.3,5c-2,1.7-4.1,3.5-6,5.4s-4.2,3.4-6.1,5.5c-1.8,2-3.3,4.3-5,6.4c-1.6,2.1-3.2,4.4-4.6,6.7
				c-1.5,2.3-3.4,4.4-4.6,6.7c-1.3,2.4-1.1,5.5-2.1,8s-1.6,5.1-2.4,7.7c-0.7,2.6-2.4,5-2.8,7.7C91.5,126.3,90.7,129,90.7,131.7z"/>
		</g>
		<defs>
			<filter id="Adobe_OpacityMaskFilter" filterUnits="userSpaceOnUse" x="90.7" y="52.7" width="123.7" height="180.9">
				
					<feColorMatrix  type="matrix" values="-1 0 0 0 1  0 -1 0 0 1  0 0 -1 0 1  0 0 0 1 0" color-interpolation-filters="sRGB" result="source"/>
			</filter>
		</defs>
		<mask maskUnits="userSpaceOnUse" x="90.7" y="52.7" width="123.7" height="180.9" id="SVGID_1_">
			<g class="st3">
				
					<image style="overflow:visible;" width="129" height="186" xlink:href="287EDCBE6617EA8C.jpg"  transform="matrix(1 0 0 1 88 50.3)">
				</image>
			</g>
		</mask>
		<g class="st4">
			<path d="M90.7,131.7c0,2.7,1.3,5.3,1.4,7.9c0.1,2.7-0.7,5.3-0.5,7.9c0.2,2.7,0.2,5.3,0.5,7.9c0.3,2.7,1.7,5.2,2,7.7
				c0.4,2.7,0.7,5.3,1.1,7.8c0.5,2.7,0.2,5.4,0.7,7.9c0.6,2.6,1.4,5.2,2.2,7.6c0.8,2.6,2,5,2.9,7.3c1,2.5,1.4,5.3,2.5,7.5
				c1.2,2.4,3.2,4.4,4.5,6.5c1.4,2.3,3.3,4.2,4.9,6.1c1.7,2.1,3.1,4.4,4.9,6.1c2,1.8,3.9,3.6,6.1,5.1s4.2,3.4,6.6,4.5
				c2.4,1.1,5.2,1.3,7.7,2s5.1,1.7,7.7,2c2.6,0.3,5.3-0.8,7.9-0.8c2.7,0,5.4,0.8,8,0.6c2.7-0.2,5.1-1.8,7.7-2.4
				c2.6-0.6,5.7,0.4,8.2-0.5s4.4-3.3,6.7-4.7c2.3-1.3,4.7-2.4,6.8-4.2c1.9-1.7,4.4-3.1,6.2-5.3c1.6-2,2.8-4.5,4.2-7
				c1.3-2.2,1.6-5,2.7-7.6c1-2.3,2.7-4.5,3.6-7.2c0.8-2.4,1.5-5,2.1-7.8c0.6-2.5,0.5-5.3,0.9-8c0.4-2.5,1.2-5.1,1.5-7.9
				c0.3-2.6,0.8-5.2,1.1-8c0.2-2.6,0.1-5.3,0.2-8c0.1-2.6,0.6-5.3,0.7-8c0-2.6-0.2-5.3-0.2-8c0-2.6-1.2-5.3-1.3-8s0.1-5.4-0.3-8
				c-0.4-2.7,0.1-5.6-0.6-8.1c-0.7-2.6-2.8-4.7-3.8-7.2s-1.3-5.4-2.5-7.7c-1.3-2.4-2.8-4.6-4.3-6.9s-3.1-4.5-4.7-6.6
				c-1.6-2.2-3-4.6-4.7-6.6c-1.8-2-4.9-2.9-6.7-4.7c-2-1.9-3.8-3.8-5.8-5.5c-2.1-1.8-4-3.8-6-5.3c-2.3-1.7-4.1-3.8-6.2-5.2
				c-2.5-1.6-4.9-3-7-4c-3.4-1.7-6.2-2.2-7.7-2.2c-1.6,0-4.7-0.1-8,1.7c-2.1,1.1-3.6,3.8-6.2,5.5c-2.1,1.4-4.4,2.8-6.7,4.5
				c-2,1.6-4.2,3.2-6.3,5c-2,1.7-4.1,3.5-6,5.4s-4.2,3.4-6.1,5.5c-1.8,2-3.3,4.3-5,6.4c-1.6,2.1-3.2,4.4-4.6,6.7
				c-1.5,2.3-3.4,4.4-4.6,6.7c-1.3,2.4-1.1,5.5-2.1,8s-1.6,5.1-2.4,7.7c-0.7,2.6-2.4,5-2.8,7.7C91.5,126.3,90.7,129,90.7,131.7z"/>
		</g>
	</g>
	<g>
		<path class="st5" d="M204.7,137.4c0,4-0.6,8-2.2,11.5c-1.5,3.5-3.9,6.8-6.7,9.7c-2.6,2.7-6,4.7-9.5,6.9c-3.2,2-6.8,3.3-10.6,4.7
			c-3.6,1.3-7.1,3.4-11,4c-3.8,0.6-7.7,0.1-11.8,0.1c-4,0-7.9-0.2-11.6-0.8c-4-0.7-7.7-1.7-11.3-3c-3.8-1.4-7.9-2-11.1-4
			c-3.5-2.1-5.7-5.7-8.3-8.4c-2.8-2.9-4.6-6.2-6.2-9.7c-1.6-3.6-2.8-7.1-2.8-11.1c0-4.2,0.5-8,0.8-11.4c0.4-4.4-0.4-8.4,0.5-11.6
			c1.3-4.4,3.9-7.4,6.1-9.8c2.7-3,6-4.7,9.8-5.5c3.4-0.7,7.2-0.1,11.4,0.1c3.6,0.2,7.5-1,11.5-0.7c3.7,0.3,7.4,2.5,11.3,2.5
			c4,0,7.8-1.4,11.5-1.8c4-0.4,7.9-0.3,11.5-0.6c4.2-0.3,8-0.3,11.4,0.4c3.9,0.8,7.4,2,10,5.1c2.1,2.4,2.7,6.1,4,10.7
			c0.9,3.2,1.9,6.7,2.3,11.2C203.9,129.3,204.7,133.1,204.7,137.4z"/>
	</g>
	<g>
		<path class="st1" d="M175,141.4c0,1.4-2.1,6.4-5.2,11.5c-2.1,3.4-5.8,6.1-8.3,9.3c-3.5,4.4-6.4,8.6-8.6,8.6
			c-1.6,0-5.9-3.2-9.7-7.8c-2.5-3-4.7-6.9-6.9-10.3c-2.9-4.5-4.2-9-4.3-11.3c-0.2-4.4-1-8.5-0.9-12.2c0.1-4.5,1.2-8.5,1.7-12.1
			c0.7-4.7,2-8.4,3.2-11.6c1.7-4.7,3.9-7.5,6.4-9.8c3.4-3,6.6-4.8,10.5-4.8c4,0,7.6,1.2,10.8,4.4c2.3,2.3,4.1,5.7,5.7,10.4
			c1.1,3.3,1.6,7.1,2.3,11.8c0.6,3.6,2.5,7.4,2.8,11.9C174.9,132.9,175,137,175,141.4z"/>
	</g>
</g>
<g id="wings">
	<g id="light">
		<g>
			<ellipse class="st6" cx="153" cy="494.6" rx="36.2" ry="67.7"/>
		</g>
	</g>
	<g id="right_wing">
		<g id="right_yellow">
			<g>
				<path class="st2" d="M243.7,351.8c0,3.9,0,7.8-0.1,11.7c-0.1,3.9-0.5,7.8-0.6,11.7c-0.2,3.9,0.8,7.9,0.5,11.7
					c-0.3,3.9-1,7.8-1.3,11.6c-0.3,3.9-1.7,7.7-2.1,11.5c-0.4,3.9,0.2,7.9-0.3,11.7c-0.5,3.9-1.6,7.7-2.2,11.5
					c-0.6,3.9-2,7.6-2.7,11.4c-0.7,3.9-0.9,7.8-1.7,11.6c-0.9,3.9-1.4,7.8-2.3,11.5c-1,3.9-2.7,7.4-3.8,11.1
					c-1.1,3.9-3.1,7.3-4.3,10.9c-1.3,3.8-1.4,7.9-2.8,11.4c-1.5,3.8-3.6,7.1-5.2,10.5c-1.8,3.7-2.6,7.8-4.5,10.9
					c-2.2,3.6-5.4,6.2-7.6,9c-2.8,3.4-5,6.8-7.9,8.8c-3.6,2.5-7.7,2.6-11.3,2.6s-7.5,1-11.1-0.6c-2.8-1.2-4.7-4.3-7.1-8.3
					c-1.5-2.6-3.3-5.6-4.6-9.9c-0.9-3.1-2.4-6.5-3.1-10.6c-0.6-3.3-0.3-7-0.7-11.1c-0.4-3.4-1.6-7-1.9-11c-0.2-3.5,0-7.4-0.2-11.7
					c-0.2-3.6,0.6-7.6,0.4-11.7c-0.1-3.7-0.8-7.6-0.9-11.6c-0.1-3.8-0.4-7.7-0.5-11.6c-0.1-3.8,0-7.7-0.1-11.6
					c-0.1-3.8-0.1-7.7-0.2-11.6c-0.1-3.9-0.7-7.7-0.8-11.6s-0.3-7.8-0.4-11.6c-0.1-3.9-0.3-7.8-0.4-11.6c0-3.9,0.6-7.8,0.6-11.7
					c0-4,0.5-7.9,0.5-11.6c0-4-0.2-7.9-0.2-11.6c0-4.1-1-8.2-1-12.1c0-4.1,1.4-8.2,1.4-12.1c0-4.1-0.6-8.2-0.6-12.1
					c0-4.1-0.8-8.2-0.8-12.1c0-4.2,1.4-8.2,1.4-12.1c0-4.2-0.2-8.2-0.1-12.1c0-4.2,0.2-8.2,0.3-12.1c0.1-4.2-0.4-8.2-0.3-12.1
					c0.1-4.2-0.5-8.3-0.4-12.1c0.1-4.3,0.5-8.3,0.7-12.1c0.2-4.3-0.2-8.4,0-12.1c0.3-4.4,1.2-8.3,1.5-12c0.4-4.4,1.3-8.4,1.9-11.9
					c0.7-4.6,1-8.6,2-11.9c1.4-4.7,3.8-7.8,5.9-10.5c2.7-3.4,5.9-4.9,9.8-6c3.4-1,7.1-2.6,11.7-2.7c3.6-0.1,7.7-0.4,12.1-0.4
					c4.4,0,8.1,1.9,11.7,3.3c3.7,1.5,6.4,4,9.4,7.1c2.5,2.7,5.1,5.5,7.1,9.6c1.6,3.3,3.9,6.7,5.2,11c1.1,3.6,1.4,7.7,2.3,12
					c0.8,3.7,2.5,7.5,3.2,11.8c0.6,3.8,0.4,7.9,0.9,12.2c0.5,3.8,1.1,7.8,1.5,12.1c0.4,3.9,0.5,7.9,0.8,12.1c0.3,3.9-0.1,8,0.2,12.2
					c0.2,3.9,0.3,8,0.5,12.2c0.2,3.9,1.8,7.9,1.9,12.1c0.1,3.9,0.5,8,0.6,12.2c0.1,4-1.2,8-1.2,12.2c0.1,4,0,8,0,12.2
					c0,4,0.7,8,0.7,12.2C243.6,343.6,243.7,347.7,243.7,351.8z"/>
			</g>
			<defs>
				<filter id="Adobe_OpacityMaskFilter_1_" filterUnits="userSpaceOnUse" x="151.8" y="163.4" width="91.9" height="379.8">
					
						<feColorMatrix  type="matrix" values="-1 0 0 0 1  0 -1 0 0 1  0 0 -1 0 1  0 0 0 1 0" color-interpolation-filters="sRGB" result="source"/>
				</filter>
			</defs>
			<mask maskUnits="userSpaceOnUse" x="151.8" y="163.4" width="91.9" height="379.8" id="SVGID_2_">
				<g class="st7">
					
						<image style="overflow:visible;" width="97" height="384" xlink:href="287EDCBE6617EA8B.jpg"  transform="matrix(1 0 0 1 149 161.3)">
					</image>
				</g>
			</mask>
			<g class="st8">
				<path d="M243.7,351.8c0,3.9,0,7.8-0.1,11.7c-0.1,3.9-0.5,7.8-0.6,11.7c-0.2,3.9,0.8,7.9,0.5,11.7c-0.3,3.9-1,7.8-1.3,11.6
					c-0.3,3.9-1.7,7.7-2.1,11.5c-0.4,3.9,0.2,7.9-0.3,11.7c-0.5,3.9-1.6,7.7-2.2,11.5c-0.6,3.9-2,7.6-2.7,11.4
					c-0.7,3.9-0.9,7.8-1.7,11.6c-0.9,3.9-1.4,7.8-2.3,11.5c-1,3.9-2.7,7.4-3.8,11.1c-1.1,3.9-3.1,7.3-4.3,10.9
					c-1.3,3.8-1.4,7.9-2.8,11.4c-1.5,3.8-3.6,7.1-5.2,10.5c-1.8,3.7-2.6,7.8-4.5,10.9c-2.2,3.6-5.4,6.2-7.6,9
					c-2.8,3.4-5,6.8-7.9,8.8c-3.6,2.5-7.7,2.6-11.3,2.6s-7.5,1-11.1-0.6c-2.8-1.2-4.7-4.3-7.1-8.3c-1.5-2.6-3.3-5.6-4.6-9.9
					c-0.9-3.1-2.4-6.5-3.1-10.6c-0.6-3.3-0.3-7-0.7-11.1c-0.4-3.4-1.6-7-1.9-11c-0.2-3.5,0-7.4-0.2-11.7c-0.2-3.6,0.6-7.6,0.4-11.7
					c-0.1-3.7-0.8-7.6-0.9-11.6c-0.1-3.8-0.4-7.7-0.5-11.6c-0.1-3.8,0-7.7-0.1-11.6c-0.1-3.8-0.1-7.7-0.2-11.6
					c-0.1-3.9-0.7-7.7-0.8-11.6s-0.3-7.8-0.4-11.6c-0.1-3.9-0.3-7.8-0.4-11.6c0-3.9,0.6-7.8,0.6-11.7c0-4,0.5-7.9,0.5-11.6
					c0-4-0.2-7.9-0.2-11.6c0-4.1-1-8.2-1-12.1c0-4.1,1.4-8.2,1.4-12.1c0-4.1-0.6-8.2-0.6-12.1c0-4.1-0.8-8.2-0.8-12.1
					c0-4.2,1.4-8.2,1.4-12.1c0-4.2-0.2-8.2-0.1-12.1c0-4.2,0.2-8.2,0.3-12.1c0.1-4.2-0.4-8.2-0.3-12.1c0.1-4.2-0.5-8.3-0.4-12.1
					c0.1-4.3,0.5-8.3,0.7-12.1c0.2-4.3-0.2-8.4,0-12.1c0.3-4.4,1.2-8.3,1.5-12c0.4-4.4,1.3-8.4,1.9-11.9c0.7-4.6,1-8.6,2-11.9
					c1.4-4.7,3.8-7.8,5.9-10.5c2.7-3.4,5.9-4.9,9.8-6c3.4-1,7.1-2.6,11.7-2.7c3.6-0.1,7.7-0.4,12.1-0.4c4.4,0,8.1,1.9,11.7,3.3
					c3.7,1.5,6.4,4,9.4,7.1c2.5,2.7,5.1,5.5,7.1,9.6c1.6,3.3,3.9,6.7,5.2,11c1.1,3.6,1.4,7.7,2.3,12c0.8,3.7,2.5,7.5,3.2,11.8
					c0.6,3.8,0.4,7.9,0.9,12.2c0.5,3.8,1.1,7.8,1.5,12.1c0.4,3.9,0.5,7.9,0.8,12.1c0.3,3.9-0.1,8,0.2,12.2c0.2,3.9,0.3,8,0.5,12.2
					c0.2,3.9,1.8,7.9,1.9,12.1c0.1,3.9,0.5,8,0.6,12.2c0.1,4-1.2,8-1.2,12.2c0.1,4,0,8,0,12.2c0,4,0.7,8,0.7,12.2
					C243.6,343.6,243.7,347.7,243.7,351.8z"/>
			</g>
		</g>
		<path id="right_black" class="st9" d="M224.5,358.2c0,3.9-0.6,7.6-0.7,11.4c-0.1,3.9,0.5,7.6,0.4,11.4c-0.1,3.9-0.2,7.6-0.4,11.4
			c-0.2,3.9-0.3,7.6-0.5,11.4c-0.2,3.9-1.7,7.6-2,11.3c-0.3,3.9,0.5,7.7,0.1,11.5c-0.4,3.9-0.9,7.6-1.3,11.4
			c-0.5,3.9-1.7,7.5-2.2,11.2c-0.6,3.9-0.1,7.8-0.7,11.5c-0.7,3.9-1.4,7.6-2.2,11.2c-0.8,3.9-1.5,7.6-2.4,11.2
			c-1,3.9-2,7.6-3.1,11.1c-1.2,3.9-3.4,7.2-4.7,10.5c-1.5,3.9-3.3,7.3-4.9,10.3c-2.1,3.9-4.3,6.8-6.6,9.3c-3.3,3.5-6.2,5.3-9.6,5.3
			c-3.3,0-7.2,2.4-10.7,1.8c-2.6-0.4-4.2-2.6-6.2-7.6c-1-2.5-3.3-5.4-4.1-9.7c-0.5-3-1.3-6.5-1.6-10.4c-0.3-3.2-0.2-6.7-0.4-10.5
			c-0.2-3.4,0.5-7.1,0.4-11.3c-0.1-3.5,0.1-7.2,0-11.2c-0.1-3.6-1.4-7.3-1.5-11.2c-0.1-3.7-0.4-7.4-0.4-11.2c-0.1-3.7,0-7.4,0-11.2
			c-0.1-3.7,0.3-7.4,0.2-11.2c-0.1-3.8,1.1-7.5,1-11.3c0-3.8-0.6-7.5-0.6-11.2c0-3.8-1.3-7.5-1.3-11.2c0-3.8,0-7.5,0-11.2
			c0-3.9,0.8-7.6,0.8-11.2c0-3.9,0.2-7.6,0.2-11.2c0-4.1,0.3-7.9,0.3-11.8c0-4.1-1-8-1-11.8c0-4.1,1.1-8,1.1-11.8
			c0-4.1-0.8-8-0.8-11.8c0-4.1,0.2-8,0.2-11.8c0-4.1-0.3-8-0.3-11.8c0-4.1,0.1-8,0.1-11.8c0-4.1-0.4-8-0.4-11.8
			c0.1-4.1,0.8-8,0.9-11.8c0.1-4.1,0.4-8.1,0.5-11.8c0.1-4.2,1.1-8.1,1.3-11.8c0.2-4.2,0.4-8.2,0.6-11.8c0.3-4.3-0.9-8.5-0.5-11.9
			c0.6-4.5,2.9-8.1,3.8-11.3c1.3-4.9,1.7-8.9,3.7-11.3c2.7-3.4,6.8-3.6,11.2-4.1c3.5-0.4,7.4-0.5,12.1-0.5c4.6,0,8.7-0.8,12.1,0
			c4.5,1.1,7.6,3.6,10.2,6.1c2.8,2.6,5.7,5.5,6.9,9.5c1,3.4,1.3,7.4,1.5,11.7c0.2,3.6-0.2,7.5-0.4,11.7c-0.2,3.7-0.5,7.5-0.8,11.6
			c-0.3,3.7,0,7.6-0.3,11.6s-1.8,7.8-1.8,11.8c0,3.9,0.3,7.7,0.6,11.9c0.2,3.7,0.9,7.6,1.2,11.8c0.3,3.7,0.8,7.6,1.1,11.8
			c0.3,3.7,1.2,7.6,1.5,11.8c0.2,3.7-1.1,7.7-0.9,12c0.2,3.8,0.7,7.6,0.8,11.9c0.1,3.8,0.7,7.7,0.8,11.9c0.1,3.8-0.1,7.7,0,11.9
			C224.4,350.2,224.5,354.1,224.5,358.2z"/>
	</g>
	<g id="left_wing">
		<g>
			<g id="left_yellow">
				<g>
					<path class="st2" d="M63.7,351.8c0,3.9,0.1,7.8,0.2,11.7c0.1,3.9,0,7.8,0.1,11.7c0.2,3.9,1.5,7.7,1.8,11.6s0.2,7.8,0.5,11.7
						c0.3,3.9-0.2,7.9,0.2,11.7c0.4,3.9,2.1,7.6,2.6,11.5s0.6,7.8,1.3,11.6c0.6,3.9,0.6,7.9,1.3,11.6c0.7,3.9,2.1,7.6,3,11.3
						c0.9,3.9,2.1,7.6,3,11.3c1,3.9,1.3,7.8,2.3,11.5c1.1,3.9,1.5,7.8,2.7,11.4c1.3,3.8,3.9,7,5.3,10.5c1.5,3.8,2.5,7.6,4.1,10.9
						c1.8,3.7,4.6,6.6,6.5,9.7c2.2,3.6,3.4,7.5,5.7,10.2c2.8,3.4,6.1,5.4,9,7.3c3.6,2.5,6.8,4.9,10.4,4.9s7.2-1,10.7-2.5
						c2.8-1.2,6.4-2.6,8.8-6.6c1.5-2.6,2.6-6.2,3.9-10.5c0.9-3.1,1-6.8,1.8-10.9c0.6-3.3,1.8-6.8,2.2-10.9c0.4-3.4-0.3-7.1-0.1-11.1
						c0.2-3.5,0.8-7.4,1-11.6c0.2-3.6,1.2-7.5,1.4-11.6c0.1-3.7-0.3-7.6-0.1-11.7c0.1-3.8,0-7.7,0.1-11.6c0.1-3.8,0.4-7.7,0.5-11.6
						c0.1-3.8,0.3-7.7,0.3-11.6c0.1-3.9-0.4-7.8-0.3-11.7c0.1-3.9,0-7.8,0-11.6c0.1-3.9-0.1-7.8-0.1-11.6c0-3.9,0.8-7.8,0.8-11.6
						c0-4,0.7-7.9,0.7-11.6c0-4-0.2-7.9-0.2-11.6c0-4.1-1-8.1-1-12.1c0-4.1,1.4-8.2,1.4-12.1c0-4.1-0.6-8.2-0.6-12.1
						c0-4.1-0.8-8.2-0.8-12.1c0-4.2,1.3-8.2,1.3-12.1c0-4.2-0.3-8.2-0.3-12.1c0-4.2,0.1-8.2,0-12.1c-0.1-4.2-0.6-8.2-0.7-12.1
						c-0.1-4.2-0.9-8.2-1-12.1c-0.1-4.3,0-8.3-0.2-12.1c-0.2-4.3-0.9-8.3-1.2-12c-0.3-4.4,0-8.4-0.4-12.1c-0.4-4.4-0.6-8.5-1.1-12
						c-0.7-4.6-2.2-8.3-3.2-11.6c-1.4-4.7-2.4-8.5-4.5-11.2c-2.7-3.4-6-5.9-9.9-7.1c-3.4-1-7.6-0.2-12.2-0.3
						c-3.6-0.1-7.6,0.2-12.1,0.2c-4.4,0-8.5-0.5-12.1,0.9c-3.7,1.5-7.5,3.5-10.5,6.7c-2.5,2.7-4.4,6.5-6.4,10.6
						c-1.6,3.3-2.4,7.3-3.7,11.6c-1.1,3.6-3,7.3-3.9,11.6c-0.8,3.7-0.7,7.9-1.4,12.1c-0.6,3.8-1.9,7.7-2.5,11.9
						c-0.5,3.8-0.7,7.9-1.1,12.1c-0.4,3.9-0.9,7.9-1.2,12.1c-0.3,3.9-1.1,7.9-1.3,12.1c-0.2,3.9-0.5,8-0.7,12.2
						c-0.2,3.9,1.2,8,1,12.2c-0.1,3.9,0,8-0.1,12.2c-0.1,4-1.6,8-1.6,12.2c-0.1,4-0.2,8-0.3,12.2c0,4,0.6,8,0.6,12.2
						C63.6,343.6,63.7,347.7,63.7,351.8z"/>
				</g>
				<defs>
					<filter id="Adobe_OpacityMaskFilter_2_" filterUnits="userSpaceOnUse" x="62.8" y="164.5" width="92.7" height="379.4">
						
							<feColorMatrix  type="matrix" values="-1 0 0 0 1  0 -1 0 0 1  0 0 -1 0 1  0 0 0 1 0" color-interpolation-filters="sRGB" result="source"/>
					</filter>
				</defs>
				<mask maskUnits="userSpaceOnUse" x="62.8" y="164.5" width="92.7" height="379.4" id="SVGID_3_">
					<g class="st10">
						
							<image style="overflow:visible;" width="98" height="384" xlink:href="287EDCBE6617EA94.jpg"  transform="matrix(1 0 0 1 60 162.3)">
						</image>
					</g>
				</mask>
				<g class="st11">
					<path d="M63.7,351.8c0,3.9,0.1,7.8,0.2,11.7c0.1,3.9,0,7.8,0.1,11.7c0.2,3.9,1.5,7.7,1.8,11.6s0.2,7.8,0.5,11.7
						c0.3,3.9-0.2,7.9,0.2,11.7c0.4,3.9,2.1,7.6,2.6,11.5s0.6,7.8,1.3,11.6c0.6,3.9,0.6,7.9,1.3,11.6c0.7,3.9,2.1,7.6,3,11.3
						c0.9,3.9,2.1,7.6,3,11.3c1,3.9,1.3,7.8,2.3,11.5c1.1,3.9,1.5,7.8,2.7,11.4c1.3,3.8,3.9,7,5.3,10.5c1.5,3.8,2.5,7.6,4.1,10.9
						c1.8,3.7,4.6,6.6,6.5,9.7c2.2,3.6,3.4,7.5,5.7,10.2c2.8,3.4,6.1,5.4,9,7.3c3.6,2.5,6.8,4.9,10.4,4.9s7.2-1,10.7-2.5
						c2.8-1.2,6.4-2.6,8.8-6.6c1.5-2.6,2.6-6.2,3.9-10.5c0.9-3.1,1-6.8,1.8-10.9c0.6-3.3,1.8-6.8,2.2-10.9c0.4-3.4-0.3-7.1-0.1-11.1
						c0.2-3.5,0.8-7.4,1-11.6c0.2-3.6,1.2-7.5,1.4-11.6c0.1-3.7-0.3-7.6-0.1-11.7c0.1-3.8,0-7.7,0.1-11.6c0.1-3.8,0.4-7.7,0.5-11.6
						c0.1-3.8,0.3-7.7,0.3-11.6c0.1-3.9-0.4-7.8-0.3-11.7c0.1-3.9,0-7.8,0-11.6c0.1-3.9-0.1-7.8-0.1-11.6c0-3.9,0.8-7.8,0.8-11.6
						c0-4,0.7-7.9,0.7-11.6c0-4-0.2-7.9-0.2-11.6c0-4.1-1-8.1-1-12.1c0-4.1,1.4-8.2,1.4-12.1c0-4.1-0.6-8.2-0.6-12.1
						c0-4.1-0.8-8.2-0.8-12.1c0-4.2,1.3-8.2,1.3-12.1c0-4.2-0.3-8.2-0.3-12.1c0-4.2,0.1-8.2,0-12.1c-0.1-4.2-0.6-8.2-0.7-12.1
						c-0.1-4.2-0.9-8.2-1-12.1c-0.1-4.3,0-8.3-0.2-12.1c-0.2-4.3-0.9-8.3-1.2-12c-0.3-4.4,0-8.4-0.4-12.1c-0.4-4.4-0.6-8.5-1.1-12
						c-0.7-4.6-2.2-8.3-3.2-11.6c-1.4-4.7-2.4-8.5-4.5-11.2c-2.7-3.4-6-5.9-9.9-7.1c-3.4-1-7.6-0.2-12.2-0.3
						c-3.6-0.1-7.6,0.2-12.1,0.2c-4.4,0-8.5-0.5-12.1,0.9c-3.7,1.5-7.5,3.5-10.5,6.7c-2.5,2.7-4.4,6.5-6.4,10.6
						c-1.6,3.3-2.4,7.3-3.7,11.6c-1.1,3.6-3,7.3-3.9,11.6c-0.8,3.7-0.7,7.9-1.4,12.1c-0.6,3.8-1.9,7.7-2.5,11.9
						c-0.5,3.8-0.7,7.9-1.1,12.1c-0.4,3.9-0.9,7.9-1.2,12.1c-0.3,3.9-1.1,7.9-1.3,12.1c-0.2,3.9-0.5,8-0.7,12.2
						c-0.2,3.9,1.2,8,1,12.2c-0.1,3.9,0,8-0.1,12.2c-0.1,4-1.6,8-1.6,12.2c-0.1,4-0.2,8-0.3,12.2c0,4,0.6,8,0.6,12.2
						C63.6,343.6,63.7,347.7,63.7,351.8z"/>
				</g>
			</g>
			<path id="left_black" class="st9" d="M82.9,358.2c0,3.9-0.6,7.6-0.5,11.4c0.1,3.9,0.8,7.6,0.9,11.4c0.1,3.9,0.3,7.6,0.5,11.4
				c0.2,3.9,0.5,7.6,0.7,11.4c0.2,3.9-0.6,7.7-0.3,11.5c0.3,3.9,1.9,7.5,2.2,11.3c0.4,3.9,0.8,7.6,1.2,11.4
				c0.5,3.9,0.3,7.7,0.8,11.4c0.6,3.9,2.3,7.4,2.9,11.1c0.7,3.9,1.4,7.6,2.2,11.2c0.8,3.9,1.8,7.5,2.7,11.1c1,3.9,2,7.5,3,11
				c1.2,3.9,1.5,7.8,2.8,11.1c1.5,3.9,3,7.5,4.6,10.5c2.1,3.9,4.2,7.2,6.4,9.6c3.3,3.5,7.1,5.3,10.5,5.3c3.3,0,7.2,1.6,10.7,1.1
				c2.6-0.4,5.9-1.9,7.9-7c1-2.5,0.4-6.3,1.1-10.6c0.5-3,0.6-6.4,1-10.4c0.3-3.2,0.8-6.6,1-10.4c0.2-3.4,1.1-7.1,1.3-11.2
				c0.1-3.5,0.6-7.2,0.7-11.2c0.1-3.6-1-7.3-0.9-11.3c0.1-3.7,0-7.4,0.1-11.2c0.1-3.7,0.3-7.4,0.4-11.2c0.1-3.7,0.5-7.4,0.6-11.2
				c0.1-3.8,1.3-7.4,1.3-11.2s-0.4-7.5-0.3-11.2c0-3.8-1.1-7.5-1.1-11.3c0-3.8,0.2-7.5,0.2-11.2c0-3.9,0.9-7.6,0.9-11.2
				c0-3.9,0.2-7.6,0.2-11.2c0-4.1,0.3-7.9,0.3-11.8c0-4.1-1-7.9-1-11.8c0-4.1,1.1-8,1-11.8c0-4.1-0.9-8-0.9-11.8
				c0-4.1,0.1-8,0.1-11.8c0-4.1-0.4-8-0.4-11.8c0-4.1-0.1-8-0.1-11.8c0-4.1-0.6-8-0.7-11.8c-0.1-4.1,0.6-8.1,0.5-11.8
				c-0.1-4.1,0-8.1-0.1-11.8c-0.1-4.2,0.5-8.2,0.3-11.9c-0.2-4.2-0.5-8.2-0.8-11.8c-0.3-4.3-2.4-8.1-2.9-11.6
				c-0.6-4.5,0.3-8.7-0.5-11.9c-1.3-4.9-4.1-7.8-6-10.2c-2.7-3.4-5.6-5.8-10-6.4c-3.5-0.4-7.6-0.2-12.3-0.2c-4.6,0-8.4,1.5-11.8,2.4
				c-4.5,1.1-8.3,2.1-10.9,4.6c-2.8,2.6-3.5,6.4-4.7,10.5c-1,3.4-1.6,6.9-1.8,11.3c-0.2,3.6-0.4,7.4-0.2,11.6
				c0.2,3.7,0.3,7.5,0.6,11.6c0.3,3.7,1.2,7.5,1.5,11.6c0.3,4-1,7.9-1.1,11.9c0,3.9,0,7.7-0.3,11.9c-0.2,3.7,0,7.6-0.3,11.9
				c-0.3,3.7-0.3,7.6-0.6,11.9c-0.3,3.7,0.2,7.6-0.1,11.9c-0.2,3.7-2,7.5-2.2,11.8c-0.2,3.8,0,7.7-0.1,11.9
				c-0.1,3.8,0.2,7.7,0.1,11.9c-0.1,3.8-0.4,7.7-0.4,11.9C82.9,350.2,82.9,354.1,82.9,358.2z"/>
		</g>
	</g>
</g>
</svg>
